<svg xmlns="http://www.w3.org/2000/svg" width="28" height="28"><g fill="none" fill-rule="evenodd"><circle fill="#0089FF" cx="14" cy="14" r="14"/><path d="m17.504 15.342-3.003 3.003c-.297.297-.463 1.051-.46 1.472l.005 1.084c.001.159.032.31.088.449H14c-2.21 0-3.969-.216-5.284-.658C7.694 20.348 7 19.351 7 18.223c0-1.084.659-2.046 1.637-2.392 1.479-.523 3.266-.781 5.363-.781 1.284 0 2.452.097 3.504.292zM14 13.65a3.5 3.5 0 1 1 0-7 3.5 3.5 0 0 1 0 7zm6.29 1.705.825.825a.7.7 0 0 1 0 .99l-3.846 3.846a.7.7 0 0 1-.499.205l-1.166-.007a.35.35 0 0 1-.348-.348L15.25 19.7a.7.7 0 0 1 .205-.5l3.846-3.845a.7.7 0 0 1 .99 0z" fill="#FFF" fill-rule="nonzero"/></g></svg>
