<svg xmlns="http://www.w3.org/2000/svg" width="28" height="28"><g fill="none" fill-rule="evenodd"><rect fill="#0089FF" width="28" height="28" rx="14"/><path d="M19.376 15.84c.98.347 1.639 1.31 1.639 2.396 0 1.128-.694 2.127-1.718 2.47-1.316.443-3.076.66-5.289.66-2.213 0-3.972-.217-5.289-.66-1.023-.343-1.718-1.342-1.718-2.47 0-1.085.66-2.05 1.64-2.395 1.152-.408 2.492-.655 4.021-.744a1.4 1.4 0 0 0 2.693.001c1.528.088 2.868.335 4.021.743zm-5.368.97a.7.7 0 0 0-.694.607l-.006.095v1.401a.7.7 0 0 0 1.394.095l.007-.095v-1.401a.7.7 0 0 0-.7-.701zm0-10.159a3.503 3.503 0 1 1 0 7.007 3.503 3.503 0 0 1 0-7.007z" fill="#FFF" fill-rule="nonzero"/></g></svg>
