<svg xmlns="http://www.w3.org/2000/svg" viewBox="0 0 28 28"><g fill="none" fill-rule="evenodd"><circle fill="#4D6AFF" cx="14" cy="14" r="14"/><path d="M8.603 12.267a5.67 5.67 0 008.658 6.37l.037-.027-1.581-.925a.667.667 0 11.673-1.15l2.391 1.398c.382.22.449.743.135 1.052a7.002 7.002 0 01-11.582-7.127.667.667 0 011.27.409zm8.897-4.33a7.002 7.002 0 013.165 8.206.667.667 0 01-1.269-.41 5.67 5.67 0 00-8.68-6.355l-.028.022 1.588.919a.667.667 0 01-.666 1.154l-2.314-1.342-.105-.064a.667.667 0 01-.12-1.04 7.002 7.002 0 018.429-1.09z" fill="#FFF"/></g></svg>
